<?xml version="1.0" encoding="utf-8"?>
<!-- Generator: Adobe Illustrator 19.1.0, SVG Export Plug-In . SVG Version: 6.00 Build 0)  -->
<svg version="1.1" xmlns="http://www.w3.org/2000/svg" xmlns:xlink="http://www.w3.org/1999/xlink" x="0px" y="0px"
	 viewBox="0 0 40 40" style="enable-background:new 0 0 40 40;" xml:space="preserve">
<style type="text/css">
	.st0{fill:none;}
	.st1{fill:#FFCC33;}
	.st2{fill:#11E900;}
	.st3{fill:#73A727;}
	.st4{fill:#2C98D0;stroke:#FFFFFF;stroke-miterlimit:10;}
	.st5{fill:#FFFFFF;}
	.st6{fill:#6D6E70;}
	.st7{fill:#1B75BB;}
	.st8{fill:url(#SVGID_1_);}
	.st9{clip-path:url(#SVGID_3_);fill:url(#SVGID_4_);}
	.st10{fill-rule:evenodd;clip-rule:evenodd;fill:#231F20;}
	.st11{fill-rule:evenodd;clip-rule:evenodd;fill:#B01117;}
	.st12{fill:#231F20;}
	.st13{fill:#B01117;}
	.st14{fill:#D36149;}
</style>
<g id="Layer_1">
	<rect class="st0" width="40" height="40"/>
	<path class="st3" d="M37.7,19.4c0.3,0.3,0.5,0.8,0.5,1.2V31c0,0.5-0.2,0.9-0.5,1.2c-0.3,0.3-0.8,0.5-1.2,0.5h-1.7V38l-5.3-5.2H19.1
		c-0.5,0-0.9-0.2-1.2-0.5c-0.3-0.3-0.5-0.8-0.5-1.2V20.6c0-0.5,0.2-0.9,0.5-1.2c0.3-0.3,0.8-0.5,1.2-0.5h17.4
		C37,18.9,37.4,19,37.7,19.4z"/>
	<path class="st4" d="M5,5.2h25.3c0.7,0,1.3,0.2,1.8,0.7c0.5,0.5,0.7,1.1,0.7,1.8V23c0,0.7-0.2,1.3-0.7,1.8
		c-0.5,0.5-1.1,0.7-1.8,0.7H15.3l-7.7,7.6v-7.6H5c-0.7,0-1.3-0.2-1.8-0.7S2.5,23.7,2.5,23V7.8c0-0.7,0.2-1.3,0.7-1.8
		C3.7,5.5,4.3,5.2,5,5.2z"/>
	<g>
		<path class="st5" d="M16.4,8.3c0.4-0.3,0.8-0.5,1.2-0.5c0.5,0,0.9,0.2,1.2,0.5c0.4,0.3,0.5,0.8,0.5,1.6c0,0.2-0.1,0.6-0.2,1
			c-0.1,0.5-0.3,1.2-0.6,2.3c-0.2,0.6-0.3,1.2-0.4,1.6s-0.2,1.3-0.3,2.6h-0.6c-0.2-1.6-0.3-2.6-0.4-3c-0.1-0.4-0.2-0.9-0.4-1.6
			c-0.3-0.9-0.4-1.5-0.5-1.8c-0.1-0.5-0.2-0.8-0.2-1.1C15.9,9.2,16.1,8.6,16.4,8.3z M16.4,19.6c0.3-0.3,0.8-0.5,1.3-0.5
			c0.5,0,0.9,0.2,1.3,0.5c0.3,0.3,0.5,0.8,0.5,1.3s-0.2,0.9-0.5,1.3c-0.3,0.3-0.8,0.5-1.3,0.5c-0.5,0-0.9-0.2-1.3-0.5
			c-0.3-0.3-0.5-0.8-0.5-1.3S16.1,19.9,16.4,19.6z"/>
	</g>
</g>
<g id="Layer_2">
</g>
</svg>
