<?xml version="1.0" encoding="utf-8"?>
<!-- Generator: Adobe Illustrator 19.2.0, SVG Export Plug-In . SVG Version: 6.00 Build 0)  -->
<svg version="1.1" id="Layer_1" xmlns="http://www.w3.org/2000/svg" xmlns:xlink="http://www.w3.org/1999/xlink" x="0px" y="0px"
	 viewBox="0 0 40 40" style="enable-background:new 0 0 40 40;" xml:space="preserve">
<style type="text/css">
	.st0{fill:#FF8300;}
	.st1{fill:#FFFFFF;}
</style>
<rect y="0" class="st0" width="40" height="40"/>
<g>
	<path class="st1" d="M24.9,5.6c-8.6,8.9-11.6,17-3.1,15.9c5-0.6,11.7-3.9,18.3-8.4V6.5c-3.5,2.4-7,4.3-9.8,5
		c-5.1,1.2-4.5-2.6,0.2-7.7c1.2-1.3,2.5-2.5,4-3.8h-3.5C28.7,1.8,26.7,3.7,24.9,5.6z"/>
	<path class="st1" d="M31.7,3.3c-3.9,4.3-4.2,7.3,0.1,6.2c2.3-0.6,5.3-2.2,8.2-4.2V1.7c-1.1,0.9-2.3,1.6-3.2,1.9
		c-1.5,0.5-1.6-0.4-0.4-1.9c0.5-0.6,1.2-1.2,1.9-1.8h-3.1C33.9,1.1,32.7,2.2,31.7,3.3z"/>
	<path class="st1" d="M22.6,33.8c2.5,0.6,5.6,2.1,6.7,6.2H40V26.3C36.3,29.8,27.9,33.4,22.6,33.8z"/>
	<path class="st1" d="M40,17.6c-8.6,5.8-17.3,9.8-23.5,10.1c-1.5,0.1-2.6-0.1-3.4-0.5l5.3,5.3c0.8,0.4,2,0.6,3.5,0.5
		c4.9-0.2,11.4-2.8,18.1-6.8V17.6z"/>
</g>
</svg>
