<?xml version="1.0" encoding="utf-8"?>
<!-- Generator: Adobe Illustrator 21.1.0, SVG Export Plug-In . SVG Version: 6.00 Build 0)  -->
<svg version="1.1" id="Layer_1" xmlns="http://www.w3.org/2000/svg" xmlns:xlink="http://www.w3.org/1999/xlink" x="0px" y="0px"
	 viewBox="0 0 67 67" style="enable-background:new 0 0 67 67;" xml:space="preserve">
<style type="text/css">
	.st0{fill:#D93675;}
	.st1{fill:#FFFFFF;}
</style>
<path class="st0" d="M34,64C17.4,64,4,50.6,4,34C4,17.4,17.4,4,34,4s30,13.4,30,30C64,50.6,50.6,64,34,64z"/>
<g>
	<path class="st1" d="M33.5,19.4c4.6,0,5.2,0,7,0.1c1.7,0.1,2.6,0.4,3.2,0.6c0.8,0.3,1.4,0.7,2,1.3c0.6,0.6,1,1.2,1.3,2
		c0.2,0.6,0.5,1.5,0.6,3.2c0.1,1.8,0.1,2.4,0.1,7s0,5.2-0.1,7c-0.1,1.7-0.4,2.6-0.6,3.2c-0.3,0.8-0.7,1.4-1.3,2
		c-0.6,0.6-1.2,1-2,1.3c-0.6,0.2-1.5,0.5-3.2,0.6c-1.8,0.1-2.4,0.1-7,0.1s-5.2,0-7-0.1c-1.7-0.1-2.6-0.4-3.2-0.6
		c-0.8-0.3-1.4-0.7-2-1.3c-0.6-0.6-1-1.2-1.3-2c-0.2-0.6-0.5-1.5-0.6-3.2c-0.1-1.8-0.1-2.4-0.1-7s0-5.2,0.1-7
		c0.1-1.7,0.4-2.6,0.6-3.2c0.3-0.8,0.7-1.4,1.3-2c0.6-0.6,1.2-1,2-1.3c0.6-0.2,1.5-0.5,3.2-0.6C28.3,19.4,28.9,19.4,33.5,19.4
		 M33.5,16.2c-4.7,0-5.3,0-7.1,0.1c-1.8,0.1-3.1,0.4-4.2,0.8c-1.1,0.4-2.1,1-3.1,2c-1,1-1.5,1.9-2,3.1c-0.4,1.1-0.7,2.4-0.8,4.2
		c-0.1,1.8-0.1,2.4-0.1,7.1c0,4.7,0,5.3,0.1,7.1c0.1,1.8,0.4,3.1,0.8,4.2c0.4,1.1,1,2.1,2,3.1c1,1,1.9,1.5,3.1,2
		c1.1,0.4,2.4,0.7,4.2,0.8c1.8,0.1,2.4,0.1,7.1,0.1s5.3,0,7.1-0.1c1.8-0.1,3.1-0.4,4.2-0.8c1.1-0.4,2.1-1,3.1-2c1-1,1.5-1.9,2-3.1
		c0.4-1.1,0.7-2.4,0.8-4.2c0.1-1.8,0.1-2.4,0.1-7.1s0-5.3-0.1-7.1c-0.1-1.8-0.4-3.1-0.8-4.2c-0.4-1.1-1-2.1-2-3.1
		c-1-1-1.9-1.5-3.1-2c-1.1-0.4-2.4-0.7-4.2-0.8C38.8,16.3,38.2,16.2,33.5,16.2L33.5,16.2z"/>
	<path class="st1" d="M33.5,24.6c-4.9,0-8.9,4-8.9,8.9s4,8.9,8.9,8.9s8.9-4,8.9-8.9S38.4,24.6,33.5,24.6z M33.5,39.3
		c-3.2,0-5.8-2.6-5.8-5.8c0-3.2,2.6-5.8,5.8-5.8c3.2,0,5.8,2.6,5.8,5.8C39.3,36.7,36.7,39.3,33.5,39.3z"/>
	<circle class="st1" cx="42.7" cy="24.3" r="2.1"/>
</g>
</svg>
